# File created by Blade
# Date/Time:  Wed Jan 21 16:09:38 2015
# Frame Rate: 120.000 fps
#------------------------------------------------------
:FULLY-SPECIFIED
:DEGREES
124
root 19.864076 35.472160 -20.796271 -174.342188 40.453782 -179.735890
Spine -0.036181 3.843734 2.850443
Head 29.436193 -25.345926 1.846344
LeftShoulder -18.211014 -27.574825 16.016366
LeftArm -24.675798 -3.001178 -26.769949
LeftForeArm 2.296607 -0.000000 -1.116646
LeftHand -8.283689 -0.000000 -1.658365
LeftHandThumb1 -26.253704 0.000000 33.147579
RightShoulder -14.778035 -9.357914 -3.624282
RightArm 11.116116 39.099308 36.607013
RightForeArm -32.337191 -0.000000 5.894241
RightHand -6.343631 -0.000000 1.184898
RightHandThumb1 -24.326973 -0.000000 -32.862282
LeftUpLeg 1.654776 11.806032 1.363021
LeftLeg 7.747431 -0.000000 -0.000000
LeftFoot 5.711602 39.232828 11.226829
LeftToeBase -129.192011 -0.000000 0.000000
RightUpLeg -16.470850 7.363431 0.166412
RightLeg 15.486939 -0.000000 -0.000000
RightFoot -20.893470 -24.662992 12.561846
RightToeBase 23.023898 -0.000000 -0.000000
125
root 19.879493 35.490814 -20.788369 -174.487068 41.167292 -180.033321
Spine 0.145693 3.689118 2.661200
Head 29.581181 -25.099939 1.698255
LeftShoulder -18.133587 -27.614732 16.146127
LeftArm -24.676532 -2.882980 -26.606384
LeftForeArm 2.437514 -0.000000 -0.992989
LeftHand -8.404269 -0.000000 -1.478565
LeftHandThumb1 -26.253704 0.000000 33.147579
RightShoulder -14.747032 -9.365815 -3.786443
RightArm 10.841331 39.163752 36.441347
RightForeArm -32.334976 0.000000 5.856262
RightHand -6.447208 0.000000 1.267308
RightHandThumb1 -24.326973 -0.000000 -32.862282
LeftUpLeg 1.478313 11.112939 1.182079
LeftLeg 8.388763 -0.000000 -0.000000
LeftFoot 5.362271 38.460303 11.047715
LeftToeBase -131.226514 -0.000000 0.000000
RightUpLeg -16.560727 7.405089 -0.026109
RightLeg 15.415777 -0.000000 -0.000000
RightFoot -20.656312 -24.146556 12.365634
RightToeBase 23.094572 -0.000000 -0.000000
126
root 19.895558 35.505913 -20.777268 -174.586704 41.929101 -180.306207
Spine 0.277465 3.611921 2.462833
Head 29.699814 -24.837489 1.614951
LeftShoulder -18.072401 -27.629256 16.268488
LeftArm -24.558276 -2.667476 -26.465694
LeftForeArm 2.246728 0.000000 -0.950295
LeftHand -8.440481 -0.000000 -1.295822
LeftHandThumb1 -26.253704 0.000000 33.147579
RightShoulder -14.761395 -9.334310 -3.944847
RightArm 10.559735 39.207893 36.286175
RightForeArm -32.318363 -0.000000 5.867213
RightHand -6.570197 -0.000000 1.289474
RightHandThumb1 -24.326973 -0.000000 -32.862282
LeftUpLeg 1.216911 10.734783 1.040864
LeftLeg 9.114062 -0.000000 -0.000000
LeftFoot 4.669203 37.522020 10.713480
LeftToeBase -133.791041 -0.000000 0.000000
RightUpLeg -16.700340 7.514545 -0.205384
RightLeg 15.356029 -0.000000 -0.000000
RightFoot -20.435890 -23.624156 12.214736
RightToeBase 23.478151 -0.000000 -0.000000
127
root 19.902898 35.519900 -20.775829 -174.723709 42.643375 -180.570321
Spine 0.439973 3.450887 2.337957
Head 29.836710 -24.470856 1.434765
LeftShoulder -18.056874 -27.672143 16.378915
LeftArm -24.465611 -2.378057 -26.375669
LeftForeArm 2.153743 -0.000000 -0.843499
LeftHand -8.396254 -0.000000 -0.947642
LeftHandThumb1 -26.253704 0.000000 33.147579
RightShoulder -14.713078 -9.327330 -4.137668
RightArm 10.289038 39.327002 36.088751
RightForeArm -32.427143 -0.000000 5.777578
RightHand -6.470035 -0.000000 1.241892
RightHandThumb1 -24.326973 -0.000000 -32.862282
LeftUpLeg 1.099238 10.117940 0.899424
LeftLeg 9.653761 -0.000000 -0.000000
LeftFoot 3.820577 36.464887 10.640813
LeftToeBase -137.012701 -0.000000 0.000000
RightUpLeg -16.793771 7.480000 -0.375257
RightLeg 15.293461 -0.000000 -0.000000
RightFoot -20.193945 -22.995965 12.039633
RightToeBase 23.186058 -0.000000 -0.000000
128
root 19.911503 35.530087 -20.769971 -174.813905 43.420631 -180.822562
Spine 0.522583 3.374264 2.180188
Head 30.042201 -24.153349 1.257876
LeftShoulder -18.038200 -27.594050 16.469783
LeftArm -24.237996 -2.112261 -26.301897
LeftForeArm 1.876565 -0.000000 -0.791202
LeftHand -8.423776 -0.000000 -0.457639
LeftHandThumb1 -26.253704 0.000000 33.147579
RightShoulder -14.704211 -9.386816 -4.286412
RightArm 10.084679 39.430749 35.916034
RightForeArm -32.436335 -0.000000 5.777699
RightHand -6.607455 -0.000000 1.364435
RightHandThumb1 -24.326973 -0.000000 -32.862282
LeftUpLeg 0.990594 9.565702 0.774333
LeftLeg 10.127158 -0.000000 -0.000000
LeftFoot 2.770108 35.197664 10.589811
LeftToeBase -140.205396 -0.000000 0.000000
RightUpLeg -16.975382 7.555569 -0.544598
RightLeg 15.300750 -0.000000 -0.000000
RightFoot -19.999048 -22.399817 11.906034
RightToeBase 23.638341 -0.000000 -0.000000
129
root 19.920786 35.536846 -20.766085 -174.876080 44.250081 -181.018863
Spine 0.599103 3.317500 2.078407
Head 30.264053 -23.820698 1.044017
LeftShoulder -18.017052 -27.640672 16.576454
LeftArm -24.139733 -1.801120 -26.124470
LeftForeArm 1.713481 -0.000000 -0.682010
LeftHand -8.333556 0.000000 -0.479822
LeftHandThumb1 -26.253704 0.000000 33.147579
RightShoulder -14.654550 -9.453614 -4.455839
RightArm 9.887784 39.561642 35.741298
RightForeArm -32.474020 -0.000000 5.781877
RightHand -6.800657 -0.000000 1.364136
RightHandThumb1 -24.326973 -0.000000 -32.862282
LeftUpLeg 0.973888 9.047353 0.706516
LeftLeg 10.482280 -0.000000 -0.000000
LeftFoot 1.605775 33.961159 10.596656
LeftToeBase -142.704053 -0.000000 0.000000
RightUpLeg -17.147424 7.773255 -0.693098
RightLeg 15.292888 -0.000000 -0.000000
RightFoot -19.824668 -21.877580 11.776402
RightToeBase 23.914652 -0.000000 -0.000000
130
root 19.928408 35.540479 -20.762639 -174.943842 45.047365 -181.229437
Spine 0.653363 3.232227 1.952018
Head 30.465095 -23.489587 0.863975
LeftShoulder -18.027375 -27.642093 16.707454
LeftArm -23.979489 -1.593868 -25.929643
LeftForeArm 1.670266 0.000000 -0.559350
LeftHand -8.415223 -0.000000 -0.338805
LeftHandThumb1 -26.253704 0.000000 33.147579
RightShoulder -14.654433 -9.476554 -4.600655
RightArm 9.703834 39.482336 35.506863
RightForeArm -32.301926 -0.000000 5.805205
RightHand -6.907924 -0.000000 1.463888
RightHandThumb1 -24.326973 -0.000000 -32.862282
LeftUpLeg 1.000714 8.396328 0.654820
LeftLeg 10.763891 -0.000000 -0.000000
LeftFoot 0.501499 32.850812 10.782773
LeftToeBase -143.838663 -0.000000 0.000000
RightUpLeg -17.361499 7.888350 -0.832936
RightLeg 15.353274 -0.000000 -0.000000
RightFoot -19.733271 -21.298466 11.703048
RightToeBase 24.141279 -0.000000 -0.000000
131
root 19.930359 35.542527 -20.766366 -174.986485 45.851381 -181.447620
Spine 0.629052 3.176543 1.828821
Head 30.690231 -23.148991 0.662829
LeftShoulder -17.923154 -27.883063 16.815965
LeftArm -24.084288 -1.284568 -25.590439
LeftForeArm 1.682796 0.000000 -0.352226
LeftHand -8.448977 -0.000000 0.082593
LeftHandThumb1 -26.253704 0.000000 33.147579
RightShoulder -14.688685 -9.530625 -4.728923
RightArm 9.591942 39.487786 35.286308
RightForeArm -32.282540 0.000000 5.812309
RightHand -6.993843 -0.000000 1.572957
RightHandThumb1 -24.326973 -0.000000 -32.862282
LeftUpLeg 1.061752 7.687389 0.581429
LeftLeg 10.875892 -0.000000 -0.000000
LeftFoot -0.752239 32.212764 10.795193
LeftToeBase -144.055509 -0.000000 0.000000
RightUpLeg -17.645395 8.017282 -0.998013
RightLeg 15.481264 -0.000000 -0.000000
RightFoot -19.607842 -20.714348 11.574189
RightToeBase 24.329203 -0.000000 -0.000000
132
root 19.935913 35.541247 -20.764219 -174.982494 46.778640 -181.609769
Spine 0.585344 3.212219 1.699093
Head 30.942328 -22.795663 0.515540
LeftShoulder -17.973480 -27.805753 16.983555
LeftArm -23.864527 -1.136074 -25.428252
LeftForeArm 1.333163 -0.000000 -0.240617
LeftHand -8.335584 0.000000 0.416821
LeftHandThumb1 -26.253704 0.000000 33.147579
RightShoulder -14.699723 -9.592674 -4.809144
RightArm 9.521463 39.555471 35.068523
RightForeArm -32.221005 -0.000000 5.828994
RightHand -7.022063 -0.000000 1.575676
RightHandThumb1 -24.326973 -0.000000 -32.862282
LeftUpLeg 1.209528 7.044756 0.587827
LeftLeg 10.853394 -0.000000 -0.000000
LeftFoot -1.875474 31.714954 11.053584
LeftToeBase -143.620254 -0.000000 0.000000
RightUpLeg -17.976583 8.296637 -1.125159
RightLeg 15.633298 -0.000000 -0.000000
RightFoot -19.494074 -20.150401 11.604770
RightToeBase 24.786836 -0.000000 -0.000000
133
root 19.938918 35.539085 -20.765866 -175.009347 47.656764 -181.793900
Spine 0.539563 3.215717 1.561586
Head 31.161823 -22.494152 0.358388
LeftShoulder -17.956516 -27.776083 17.101047
LeftArm -23.681293 -1.148968 -25.120410
LeftForeArm 1.270488 -0.000000 -0.178305
LeftHand -8.371351 -0.000000 0.869555
LeftHandThumb1 -26.253704 0.000000 33.147579
RightShoulder -14.716285 -9.487603 -4.920425
RightArm 9.289935 39.466728 34.747759
RightForeArm -32.313885 -0.000000 5.950143
RightHand -7.148628 0.000000 1.624393
RightHandThumb1 -24.326973 -0.000000 -32.862282
LeftUpLeg 1.427808 6.240132 0.562803
LeftLeg 10.703721 -0.000000 -0.000000
LeftFoot -2.727477 31.573909 11.282878
LeftToeBase -143.495256 -0.000000 0.000000
RightUpLeg -18.305924 8.560962 -1.268494
RightLeg 15.827336 -0.000000 -0.000000
RightFoot -19.387766 -19.599520 11.574377
RightToeBase 24.811304 -0.000000 -0.000000
134
root 19.939078 35.536281 -20.767468 -175.006943 48.592083 -181.987001
Spine 0.427874 3.228178 1.398430
Head 31.420978 -22.131981 0.221922
LeftShoulder -17.986432 -27.779405 17.273474
LeftArm -23.545392 -1.105242 -24.803110
LeftForeArm 1.153291 -0.000000 -0.097206
LeftHand -8.334053 -0.000000 1.143587
LeftHandThumb1 -26.253704 0.000000 33.147579
RightShoulder -14.717389 -9.660277 -4.968165
RightArm 9.302680 39.610550 34.600956
RightForeArm -32.196270 0.000000 6.081421
RightHand -7.139090 -0.000000 1.735205
RightHandThumb1 -24.326973 -0.000000 -32.862282
LeftUpLeg 1.659260 5.391316 0.508895
LeftLeg 10.455324 -0.000000 -0.000000
LeftFoot -3.455126 31.575590 11.321029
LeftToeBase -143.220291 -0.000000 0.000000
RightUpLeg -18.701548 8.950217 -1.442779
RightLeg 16.051049 -0.000000 -0.000000
RightFoot -19.344049 -19.170761 11.489508
RightToeBase 24.856124 -0.000000 -0.000000
135
root 19.943469 35.532705 -20.763961 -175.009983 49.519369 -182.129455
Spine 0.355249 3.268485 1.239401
Head 31.645712 -21.810310 0.131690
LeftShoulder -17.920432 -27.896892 17.432185
LeftArm -23.559970 -0.699372 -24.568101
LeftForeArm 0.806648 -0.000000 0.115104
LeftHand -8.311507 -0.000000 1.537307
LeftHandThumb1 -26.253704 0.000000 33.147579
RightShoulder -14.766967 -9.660323 -4.988003
RightArm 9.274681 39.605124 34.378811
RightForeArm -32.254863 -0.000000 6.158940
RightHand -7.130342 -0.000000 1.607163
RightHandThumb1 -24.326973 -0.000000 -32.862282
LeftUpLeg 2.006000 4.437287 0.536053
LeftLeg 10.121227 -0.000000 -0.000000
LeftFoot -3.965303 31.702353 11.519495
LeftToeBase -143.063229 -0.000000 0.000000
RightUpLeg -19.056958 9.396978 -1.567575
RightLeg 16.270319 -0.000000 -0.000000
RightFoot -19.248024 -18.776890 11.532721
RightToeBase 24.855067 -0.000000 -0.000000
136
root 19.945774 35.526884 -20.762602 -175.001337 50.467243 -182.251534
Spine 0.271631 3.279896 1.102365
Head 31.851375 -21.443892 0.042828
LeftShoulder -17.922209 -27.856905 17.597221
LeftArm -23.436748 -0.630663 -24.287804
LeftForeArm 0.665074 -0.000000 0.236806
LeftHand -8.475967 0.000000 1.849693
LeftHandThumb1 -26.253704 0.000000 33.147579
RightShoulder -14.783726 -9.738965 -5.014510
RightArm 9.370991 39.606432 34.244171
RightForeArm -32.171001 -0.000000 6.214274
RightHand -7.312616 -0.000000 1.263289
RightHandThumb1 -24.326973 -0.000000 -32.862282
LeftUpLeg 2.434117 3.320127 0.542787
LeftLeg 9.663498 -0.000000 -0.000000
LeftFoot -4.186558 32.068411 11.705998
LeftToeBase -142.247345 -0.000000 0.000000
RightUpLeg -19.423341 9.839390 -1.679442
RightLeg 16.512030 -0.000000 -0.000000
RightFoot -19.126633 -18.331567 11.564712
RightToeBase 24.816742 -0.000000 -0.000000
